<?xml version="1.0" encoding="UTF-8" standalone="no"?><!DOCTYPE svg PUBLIC "-//W3C//DTD SVG 1.1//EN" "http://www.w3.org/Graphics/SVG/1.1/DTD/svg11.dtd"><svg width="100%" height="100%" viewBox="0 0 251 243" version="1.1" xmlns="http://www.w3.org/2000/svg" xmlns:xlink="http://www.w3.org/1999/xlink" xml:space="preserve" xmlns:serif="http://www.serif.com/" style="fill-rule:evenodd;clip-rule:evenodd;stroke-linejoin:round;stroke-miterlimit:1.41421;"><rect id="Page-5" serif:id="Page 5" x="0" y="0" width="250.772" height="242.443" style="fill:none;"/><g id="Layer-1" serif:id="Layer 1"><rect x="3.11" y="0.769" width="240.974" height="175.59" style="fill:#fff;"/><path d="M146.365,13.399c-19.829,26 -10.441,67.712 2.933,100.075c6.488,15.7 19.432,21.157 22.025,21.157c6.196,0 25.719,-6.572 26.125,-6.19c0.225,0.21 -25.079,11.004 -25.559,11.766c-0.765,1.214 -1.249,1.525 -1.676,2.119c-0.603,0.841 -12.127,16.899 -15.473,21.561c-2.385,3.323 0.803,3.02 1.092,3.042c5.749,0.434 30.866,-3.042 52.333,-20.442c6.439,-5.219 4.49,-10.992 10.049,-20.578c0.162,-0.279 0.218,-1.123 -0.339,-1.364c-1.672,-0.723 -4.678,-2.421 -6.177,-5.479c-14.156,-28.899 -45,-105.667 -65.333,-105.667" style="fill:#3a3a3a;fill-rule:nonzero;"/><path d="M211.198,112.315c0.389,-5.774 7.661,-96.21 -7.189,-104.267c-12.161,5.462 -25.603,24.588 -28.106,29.767c5.295,8.604 31.545,57.5 35.295,74.5" style="fill:#3a3a3a;fill-rule:nonzero;"/><path d="M236.162,141.546c-2.182,3.09 -8.508,0.229 -12.214,-1.055c-1.394,-0.482 -3.254,-1.566 -3.85,-2.881c-1.123,-2.478 -1.465,-4.437 0.159,-7.268c0.877,-1.53 2.247,-3.45 3.584,-4.287c2.45,-1.536 7.132,-2.054 9.71,-1.089c5.234,1.96 5.493,12.498 2.611,16.58" style="fill:#3a3a3a;fill-rule:nonzero;"/><path d="M138.269,157.724c-1.805,-1.258 -2.176,-3.706 -0.823,-5.441l10.52,-13.498c1.353,-1.735 4.13,-2.486 6.173,-1.668l5.755,2.303c2.043,0.818 2.665,2.949 1.382,4.737l-11.828,16.48c-1.282,1.788 -3.809,2.221 -5.614,0.964l-5.565,-3.877Z" style="fill:#3a3a3a;fill-rule:nonzero;"/><path d="M123.048,147.268c-1.717,-1.376 -1.922,-3.844 -0.456,-5.484l7.71,-8.629c1.466,-1.641 4.288,-2.204 6.271,-1.251l2.764,1.328c1.983,0.953 2.46,3.121 1.061,4.818l-8.936,10.835c-1.4,1.698 -3.95,1.961 -5.667,0.585l-2.747,-2.202Z" style="fill:#3a3a3a;fill-rule:nonzero;"/><path d="M112.248,138.355c-1.676,-1.425 -1.809,-3.898 -0.296,-5.495l5.139,-5.426c1.513,-1.597 4.35,-2.077 6.304,-1.067l0.665,0.343c1.955,1.01 2.369,3.192 0.92,4.847l-6.207,7.096c-1.449,1.656 -4.005,1.845 -5.681,0.42l-0.844,-0.718Z" style="fill:#3a3a3a;fill-rule:nonzero;"/><path d="M110.837,127.613c0,0 -0.391,-0.176 -1.125,-0.506c-0.718,-0.336 -1.755,-0.844 -3.051,-1.53c-2.586,-1.374 -6.209,-3.474 -10.259,-6.435c-2.024,-1.488 -4.138,-3.181 -6.284,-5.127c-0.518,-0.48 -1.044,-0.966 -1.576,-1.458c-0.528,-0.514 -1.062,-1.035 -1.602,-1.561c-1.073,-1.056 -2.137,-2.139 -3.215,-3.246c-2.155,-2.217 -4.357,-4.499 -6.639,-6.778c-2.286,-2.271 -4.627,-4.559 -7.043,-6.768c-1.193,-1.121 -2.411,-2.214 -3.632,-3.296c-1.21,-1.094 -2.433,-2.164 -3.663,-3.208c-2.429,-2.122 -4.895,-4.126 -7.258,-6.092c-2.406,-1.915 -4.705,-3.8 -6.94,-5.521c-2.238,-1.717 -4.323,-3.38 -6.303,-4.844c-1.969,-1.478 -3.775,-2.832 -5.375,-4.033c-1.617,-1.179 -3.027,-2.208 -4.188,-3.054c-2.322,-1.693 -3.65,-2.66 -3.65,-2.66l-0.007,-0.005c-0.293,-0.214 -0.358,-0.625 -0.144,-0.919c0.212,-0.29 0.618,-0.356 0.911,-0.15c0,0 1.345,0.947 3.698,2.605c1.177,0.83 2.606,1.838 4.245,2.993c1.623,1.178 3.455,2.507 5.454,3.956c2.008,1.437 4.127,3.072 6.399,4.758c2.27,1.69 4.61,3.546 7.056,5.432c2.407,1.937 4.917,3.911 7.397,6.008c1.254,1.031 2.502,2.088 3.739,3.171c1.248,1.07 2.493,2.152 3.715,3.263c2.471,2.189 4.871,4.46 7.213,6.713c2.334,2.258 4.591,4.523 6.768,6.692c2.207,2.179 4.248,4.201 6.396,6.071c2.07,1.816 4.156,3.435 6.128,4.836c3.959,2.799 7.5,4.777 10.011,6.06c1.257,0.64 2.258,1.111 2.941,1.416c0.676,0.292 1.037,0.448 1.037,0.448l0.056,0.024c0.761,0.328 1.111,1.211 0.783,1.972c-0.328,0.76 -1.211,1.111 -1.972,0.782c-0.004,-0.002 -0.016,-0.007 -0.021,-0.009" style="fill:#343535;fill-rule:nonzero;"/><path d="M106.599,131.609c0,0 -6.022,-1.871 -15.056,-4.679c-4.516,-1.403 -9.786,-3.041 -15.432,-4.795c-2.824,-0.858 -5.758,-1.829 -8.694,-2.81c-2.944,-0.988 -5.934,-1.993 -8.924,-2.997c-11.945,-4.029 -23.915,-7.984 -33.065,-10.226c-4.568,-1.12 -8.435,-1.797 -11.132,-1.922c-1.343,-0.051 -2.394,-0.005 -3.07,0.132c-0.353,0.034 -0.582,0.143 -0.755,0.177c-0.168,0.046 -0.255,0.07 -0.255,0.07l-0.079,0.021c-0.279,0.077 -0.568,-0.088 -0.644,-0.367c-0.075,-0.275 0.083,-0.558 0.353,-0.64c0,0 0.103,-0.032 0.301,-0.092c0.199,-0.047 0.496,-0.179 0.88,-0.226c0.774,-0.169 1.899,-0.237 3.312,-0.211c2.823,0.078 6.763,0.696 11.4,1.737c9.277,2.085 21.355,5.82 33.382,9.62c3.007,0.946 6.014,1.892 8.974,2.823c2.971,0.928 5.854,1.822 8.703,2.628c5.679,1.645 10.979,3.181 15.522,4.497c9.086,2.632 15.143,4.387 15.143,4.387c0.796,0.231 1.254,1.063 1.024,1.858c-0.231,0.796 -1.063,1.254 -1.859,1.024c-0.007,-0.002 -0.022,-0.007 -0.029,-0.009" style="fill:#343535;fill-rule:nonzero;"/></g></svg>